<svg width="48" height="42" viewBox="0 0 48 42" fill="none" xmlns="http://www.w3.org/2000/svg" xmlns:xlink="http://www.w3.org/1999/xlink">
<path d="M20.812,0.052C9.335,0.052 0,8.221 0,18.262C0,28.304 9.335,36.472 20.812,36.472C24.32,36.472 27.769,35.744 30.682,34.339C30.916,34.585 31.174,34.811 31.455,35.015L37.401,40.218C37.95,40.759 38.62,41.196 39.369,41.502C40.118,41.808 40.93,41.976 41.756,41.998C42.583,42.019 43.405,41.892 44.173,41.625C44.941,41.358 45.639,40.957 46.224,40.446C46.808,39.934 47.267,39.324 47.572,38.652C47.877,37.979 48.022,37.26 47.997,36.537C47.973,35.814 47.78,35.103 47.43,34.448C47.081,33.792 46.582,33.207 45.964,32.726L40.018,27.523C39.728,27.27 39.409,27.043 39.066,26.847C40.672,24.298 41.683,21.332 41.683,18.21C41.683,8.169 32.347,0 20.871,0L20.812,0.052ZM20.812,5.255C29.077,5.255 35.677,11.03 35.677,18.262C35.677,21.696 34.25,24.87 31.753,27.211C31.693,27.263 31.634,27.315 31.574,27.367C31.293,27.571 31.035,27.798 30.801,28.044C28.185,30.125 24.617,31.321 20.752,31.321C12.487,31.321 5.887,25.546 5.887,18.314C5.887,11.082 12.487,5.307 20.752,5.307L20.812,5.255Z" fill="#D9D9D9"/>
</svg>
